<svg width="9" height="7" viewBox="0 0 9 7" fill="none" xmlns="http://www.w3.org/2000/svg">
<g opacity="0.9">
<path d="M8.89953 2.02957C7.80862 0.931113 6.29697 0.250977 4.62654 0.250977C2.95105 0.250977 1.4354 0.935207 0.34375 2.0395L1.29001 2.98581C2.13948 2.12368 3.32065 1.58922 4.62654 1.58922C5.92746 1.58922 7.10446 2.11957 7.95319 2.97586L8.89953 2.02957Z" fill="white"/>
<path d="M7.36183 3.56728C6.66445 2.86235 5.69647 2.42562 4.62654 2.42562C3.55156 2.42562 2.57957 2.86646 1.88145 3.57724L2.82779 4.52359C3.28365 4.05496 3.92116 3.76386 4.62654 3.76386C5.32695 3.76386 5.96029 4.05082 6.41549 4.51359L7.36183 3.56728Z" fill="white"/>
<path d="M5.82405 5.10505C5.52028 4.79362 5.09596 4.60026 4.62654 4.60026C4.15207 4.60026 3.72374 4.79779 3.41932 5.11509L4.61666 6.31244L5.82405 5.10505Z" fill="white"/>
</g>
</svg>
