<svg width="147" height="41" viewBox="0 0 147 41" fill="none" xmlns="http://www.w3.org/2000/svg">
<rect width="147" height="41" rx="8" fill="#1B1B1B"/>
<path d="M51.3326 10.012C51.3326 10.9097 51.0567 11.6286 50.5131 12.1647C49.8882 12.8003 49.0742 13.1201 48.0767 13.1201C47.1234 13.1201 46.3094 12.7949 45.6417 12.154C44.9725 11.5036 44.6387 10.7054 44.6387 9.75001C44.6387 8.7946 44.9725 7.99641 45.6417 7.35141C46.3094 6.70507 47.1234 6.37988 48.0767 6.37988C48.5513 6.37988 49.0038 6.47529 49.4356 6.65266C49.8661 6.83138 50.2165 7.07326 50.4704 7.37157L49.8937 7.93863C49.4508 7.42935 48.8479 7.17807 48.0767 7.17807C47.3814 7.17807 46.7785 7.41457 46.2666 7.8916C45.7603 8.36998 45.5065 8.98945 45.5065 9.75001C45.5065 10.5106 45.7603 11.1354 46.2666 11.6138C46.7785 12.0854 47.3814 12.3273 48.0767 12.3273C48.8148 12.3273 49.4356 12.0854 49.9254 11.6084C50.2482 11.2926 50.4317 10.8573 50.48 10.3009H48.0767V9.52426H51.283C51.3216 9.69223 51.3326 9.85482 51.3326 10.012Z" fill="white" stroke="white" stroke-width="0.13312" stroke-miterlimit="10"/>
<path d="M56.421 7.31881H53.4093V9.36131H56.1244V10.138H53.4093V12.1805H56.421V12.972H52.5566V6.52734H56.421V7.31881Z" fill="white" stroke="white" stroke-width="0.13312" stroke-miterlimit="10"/>
<path d="M60.0105 12.972H59.1579V7.31881H57.3105V6.52734H61.8592V7.31881H60.0105V12.972Z" fill="white" stroke="white" stroke-width="0.13312" stroke-miterlimit="10"/>
<path d="M65.1504 12.972V6.52734H66.0016V12.972H65.1504Z" fill="white" stroke="white" stroke-width="0.13312" stroke-miterlimit="10"/>
<path d="M69.7761 12.972H68.9304V7.31881H67.0762V6.52734H71.6303V7.31881H69.7761V12.972Z" fill="white" stroke="white" stroke-width="0.13312" stroke-miterlimit="10"/>
<path d="M80.2419 12.1432C79.5893 12.7949 78.7808 13.1201 77.8165 13.1201C76.8466 13.1201 76.0381 12.7949 75.3856 12.1432C74.7344 11.4929 74.4102 10.6947 74.4102 9.75001C74.4102 8.80535 74.7344 8.00716 75.3856 7.35679C76.0381 6.70507 76.8466 6.37988 77.8165 6.37988C78.7753 6.37988 79.5838 6.70507 80.2363 7.36216C80.893 8.01791 81.2173 8.81073 81.2173 9.75001C81.2173 10.6947 80.893 11.4929 80.2419 12.1432ZM76.016 11.603C76.5072 12.0854 77.1046 12.3273 77.8165 12.3273C78.5228 12.3273 79.1257 12.0854 79.6114 11.603C80.1011 11.1206 80.3495 10.5012 80.3495 9.75001C80.3495 8.99885 80.1011 8.37938 79.6114 7.89698C79.1257 7.41457 78.5228 7.1727 77.8165 7.1727C77.1046 7.1727 76.5072 7.41457 76.016 7.89698C75.5263 8.37938 75.2779 8.99885 75.2779 9.75001C75.2779 10.5012 75.5263 11.1206 76.016 11.603Z" fill="white" stroke="white" stroke-width="0.13312" stroke-miterlimit="10"/>
<path d="M82.4121 12.972V6.52734H83.4468L86.6641 11.5395H86.7014L86.6641 10.3006V6.52734H87.5154V12.972H86.6269L83.2578 7.71253H83.2206L83.2578 8.95684V12.972H82.4121Z" fill="white" stroke="white" stroke-width="0.13312" stroke-miterlimit="10"/>
<path d="M74.1998 22.3844C71.6074 22.3844 69.4897 24.306 69.4897 26.9572C69.4897 29.5869 71.6074 31.5286 74.1998 31.5286C76.7976 31.5286 78.9153 29.5869 78.9153 26.9572C78.9153 24.306 76.7976 22.3844 74.1998 22.3844ZM74.1998 29.728C72.7774 29.728 71.5536 28.5845 71.5536 26.9572C71.5536 25.3084 72.7774 24.185 74.1998 24.185C75.6222 24.185 76.8514 25.3084 76.8514 26.9572C76.8514 28.5845 75.6222 29.728 74.1998 29.728ZM63.9229 22.3844C61.3251 22.3844 59.2129 24.306 59.2129 26.9572C59.2129 29.5869 61.3251 31.5286 63.9229 31.5286C66.5194 31.5286 68.633 29.5869 68.633 26.9572C68.633 24.306 66.5194 22.3844 63.9229 22.3844ZM63.9229 29.728C62.4991 29.728 61.2713 28.5845 61.2713 26.9572C61.2713 25.3084 62.4991 24.185 63.9229 24.185C65.3453 24.185 66.569 25.3084 66.569 26.9572C66.569 28.5845 65.3453 29.728 63.9229 29.728ZM51.6939 23.7859V25.729H56.4577C56.3184 26.8148 55.9459 27.6129 55.3747 28.1693C54.6794 28.8411 53.5964 29.5869 51.6939 29.5869C48.7622 29.5869 46.4665 27.2824 46.4665 24.4269C46.4665 21.5715 48.7622 19.2669 51.6939 19.2669C53.2791 19.2669 54.4324 19.8703 55.2837 20.6523L56.6895 19.283C55.4989 18.1758 53.9151 17.3252 51.6939 17.3252C47.6736 17.3252 44.2949 20.5112 44.2949 24.4269C44.2949 28.3426 47.6736 31.5286 51.6939 31.5286C53.8668 31.5286 55.4989 30.8353 56.7819 29.5345C58.0967 28.2539 58.5065 26.4533 58.5065 24.9994C58.5065 24.5479 58.4679 24.1326 58.3989 23.7859H51.6939ZM101.7 25.2923C101.312 24.2697 100.116 22.3844 97.6797 22.3844C95.2653 22.3844 93.2552 24.2374 93.2552 26.9572C93.2552 29.5184 95.2446 31.5286 97.9114 31.5286C100.068 31.5286 101.312 30.248 101.824 29.5023L100.224 28.4635C99.6898 29.2241 98.9627 29.728 97.9114 29.728C96.8671 29.728 96.1179 29.2617 95.6378 28.3426L101.917 25.8123L101.7 25.2923ZM95.2984 26.8148C95.2446 25.0518 96.7043 24.1488 97.75 24.1488C98.5695 24.1488 99.2649 24.5479 99.4966 25.1189L95.2984 26.8148ZM90.1952 31.2505H92.2591V17.813H90.1952V31.2505ZM86.8151 23.403H86.7461C86.2826 22.8682 85.3982 22.3844 84.278 22.3844C81.9271 22.3844 79.7776 24.3947 79.7776 26.972C79.7776 29.5345 81.9271 31.5286 84.278 31.5286C85.3982 31.5286 86.2826 31.0409 86.7461 30.4899H86.8151V31.1457C86.8151 32.8939 85.8562 33.8332 84.3097 33.8332C83.0487 33.8332 82.2665 32.9463 81.9436 32.2005L80.1487 32.9302C80.6661 34.1422 82.0361 35.6338 84.3097 35.6338C86.7296 35.6338 88.7714 34.247 88.7714 30.8729V22.6626H86.8151V23.403ZM84.4545 29.728C83.0322 29.728 81.8415 28.5684 81.8415 26.972C81.8415 25.3608 83.0322 24.185 84.4545 24.185C85.8563 24.185 86.9613 25.3608 86.9613 26.972C86.9613 28.5684 85.8563 29.728 84.4545 29.728ZM111.363 17.813H106.427V31.2505H108.485V26.159H111.363C113.649 26.159 115.891 24.5479 115.891 21.9853C115.891 19.4241 113.643 17.813 111.363 17.813ZM111.417 24.2899H108.485V19.6821H111.417C112.954 19.6821 113.831 20.9251 113.831 21.9853C113.831 23.0254 112.954 24.2899 111.417 24.2899ZM124.141 22.3589C122.654 22.3589 121.107 22.9985 120.471 24.4162L122.298 25.1619C122.691 24.4162 123.414 24.1743 124.178 24.1743C125.246 24.1743 126.329 24.7991 126.346 25.9024V26.0434C125.973 25.8338 125.176 25.5234 124.195 25.5234C122.227 25.5234 120.223 26.5783 120.223 28.5469C120.223 30.3475 121.834 31.5071 123.646 31.5071C125.031 31.5071 125.795 30.8984 126.275 30.1903H126.346V31.229H128.334V26.0744C128.334 23.6919 126.507 22.3589 124.141 22.3589ZM123.893 29.7226C123.219 29.7226 122.281 29.3974 122.281 28.5845C122.281 27.5444 123.451 27.1453 124.464 27.1453C125.37 27.1453 125.795 27.3402 126.346 27.5968C126.184 28.8411 125.085 29.7226 123.893 29.7226ZM135.577 22.6532L133.211 28.4783H133.14L130.694 22.6532H128.474L132.15 30.7936L130.053 35.3234H132.204L137.867 22.6532H135.577ZM117.022 31.2505H119.086V17.813H117.022V31.2505Z" fill="white"/>
<path d="M10.5157 7.104C10.1915 7.43457 10.0039 7.94922 10.0039 8.61572V32.3894C10.0039 33.0559 10.1915 33.5705 10.5157 33.9011L10.5958 33.9736L24.2734 20.6571V20.3426L10.5958 7.02607L10.5157 7.104Z" fill="url(#paint0_linear_60_220)"/>
<path d="M28.8276 25.0986L24.2734 20.6575V20.3431L28.8331 15.902L28.9352 15.9598L34.3351 18.9523C35.8761 19.8016 35.8761 21.1991 34.3351 22.0537L28.9352 25.0409L28.8276 25.0986Z" fill="url(#paint1_linear_60_220)"/>
<path d="M28.938 25.0404L24.2762 20.4999L10.5186 33.9011C11.0304 34.4252 11.8651 34.4883 12.8143 33.9643L28.938 25.0404Z" fill="url(#paint2_linear_60_220)"/>
<path d="M28.938 15.9585L12.8143 7.03465C11.8651 6.51596 11.0304 6.57912 10.5186 7.10318L24.2762 20.499L28.938 15.9585Z" fill="url(#paint3_linear_60_220)"/>
<defs>
<linearGradient id="paint0_linear_60_220" x1="23.059" y1="32.6369" x2="5.02418" y2="14.1206" gradientUnits="userSpaceOnUse">
<stop stop-color="#00A0FF"/>
<stop offset="0.0066" stop-color="#00A1FF"/>
<stop offset="0.2601" stop-color="#00BEFF"/>
<stop offset="0.5122" stop-color="#00D2FF"/>
<stop offset="0.7604" stop-color="#00DFFF"/>
<stop offset="1" stop-color="#00E3FF"/>
</linearGradient>
<linearGradient id="paint1_linear_60_220" x1="36.3418" y1="20.4988" x2="9.63557" y2="20.4988" gradientUnits="userSpaceOnUse">
<stop stop-color="#FFE000"/>
<stop offset="0.4087" stop-color="#FFBD00"/>
<stop offset="0.7754" stop-color="#FFA500"/>
<stop offset="1" stop-color="#FF9C00"/>
</linearGradient>
<linearGradient id="paint2_linear_60_220" x1="26.4031" y1="18.0316" x2="1.94638" y2="-7.07813" gradientUnits="userSpaceOnUse">
<stop stop-color="#FF3A44"/>
<stop offset="1" stop-color="#C31162"/>
</linearGradient>
<linearGradient id="paint3_linear_60_220" x1="7.05546" y1="41.8096" x2="17.9765" y2="30.5971" gradientUnits="userSpaceOnUse">
<stop stop-color="#32A071"/>
<stop offset="0.0685" stop-color="#2DA771"/>
<stop offset="0.4762" stop-color="#15CF74"/>
<stop offset="0.8009" stop-color="#06E775"/>
<stop offset="1" stop-color="#00F076"/>
</linearGradient>
</defs>
</svg>
