<svg width="148" height="41" viewBox="0 0 148 41" fill="none" xmlns="http://www.w3.org/2000/svg">
<rect x="0.5" width="147" height="41" rx="8" fill="#1B1B1B"/>
<path d="M51.8326 10.012C51.8326 10.9097 51.5567 11.6286 51.0131 12.1647C50.3882 12.8003 49.5742 13.1201 48.5767 13.1201C47.6234 13.1201 46.8094 12.7949 46.1417 12.154C45.4725 11.5036 45.1387 10.7054 45.1387 9.75001C45.1387 8.7946 45.4725 7.99641 46.1417 7.35141C46.8094 6.70507 47.6234 6.37988 48.5767 6.37988C49.0513 6.37988 49.5038 6.47529 49.9356 6.65266C50.3661 6.83138 50.7165 7.07326 50.9704 7.37157L50.3937 7.93863C49.9508 7.42935 49.3479 7.17807 48.5767 7.17807C47.8814 7.17807 47.2785 7.41457 46.7666 7.8916C46.2603 8.36998 46.0065 8.98945 46.0065 9.75001C46.0065 10.5106 46.2603 11.1354 46.7666 11.6138C47.2785 12.0854 47.8814 12.3273 48.5767 12.3273C49.3148 12.3273 49.9356 12.0854 50.4254 11.6084C50.7482 11.2926 50.9317 10.8573 50.98 10.3009H48.5767V9.52426H51.783C51.8216 9.69223 51.8326 9.85482 51.8326 10.012Z" fill="white" stroke="white" stroke-width="0.13312" stroke-miterlimit="10"/>
<path d="M56.921 7.31881H53.9093V9.36131H56.6244V10.138H53.9093V12.1805H56.921V12.972H53.0566V6.52734H56.921V7.31881Z" fill="white" stroke="white" stroke-width="0.13312" stroke-miterlimit="10"/>
<path d="M60.5105 12.972H59.6579V7.31881H57.8105V6.52734H62.3592V7.31881H60.5105V12.972Z" fill="white" stroke="white" stroke-width="0.13312" stroke-miterlimit="10"/>
<path d="M65.6504 12.972V6.52734H66.5016V12.972H65.6504Z" fill="white" stroke="white" stroke-width="0.13312" stroke-miterlimit="10"/>
<path d="M70.2761 12.972H69.4304V7.31881H67.5762V6.52734H72.1303V7.31881H70.2761V12.972Z" fill="white" stroke="white" stroke-width="0.13312" stroke-miterlimit="10"/>
<path d="M80.7419 12.1432C80.0893 12.7949 79.2808 13.1201 78.3165 13.1201C77.3466 13.1201 76.5381 12.7949 75.8856 12.1432C75.2344 11.4929 74.9102 10.6947 74.9102 9.75001C74.9102 8.80535 75.2344 8.00716 75.8856 7.35679C76.5381 6.70507 77.3466 6.37988 78.3165 6.37988C79.2753 6.37988 80.0838 6.70507 80.7363 7.36216C81.393 8.01791 81.7173 8.81073 81.7173 9.75001C81.7173 10.6947 81.393 11.4929 80.7419 12.1432ZM76.516 11.603C77.0072 12.0854 77.6046 12.3273 78.3165 12.3273C79.0228 12.3273 79.6257 12.0854 80.1114 11.603C80.6011 11.1206 80.8495 10.5012 80.8495 9.75001C80.8495 8.99885 80.6011 8.37938 80.1114 7.89698C79.6257 7.41457 79.0228 7.1727 78.3165 7.1727C77.6046 7.1727 77.0072 7.41457 76.516 7.89698C76.0263 8.37938 75.7779 8.99885 75.7779 9.75001C75.7779 10.5012 76.0263 11.1206 76.516 11.603Z" fill="white" stroke="white" stroke-width="0.13312" stroke-miterlimit="10"/>
<path d="M82.9121 12.972V6.52734H83.9468L87.1641 11.5395H87.2014L87.1641 10.3006V6.52734H88.0154V12.972H87.1269L83.7578 7.71253H83.7206L83.7578 8.95684V12.972H82.9121Z" fill="white" stroke="white" stroke-width="0.13312" stroke-miterlimit="10"/>
<path d="M74.6998 22.3844C72.1074 22.3844 69.9897 24.306 69.9897 26.9572C69.9897 29.5869 72.1074 31.5286 74.6998 31.5286C77.2976 31.5286 79.4153 29.5869 79.4153 26.9572C79.4153 24.306 77.2976 22.3844 74.6998 22.3844ZM74.6998 29.728C73.2774 29.728 72.0536 28.5845 72.0536 26.9572C72.0536 25.3084 73.2774 24.185 74.6998 24.185C76.1222 24.185 77.3514 25.3084 77.3514 26.9572C77.3514 28.5845 76.1222 29.728 74.6998 29.728ZM64.4229 22.3844C61.8251 22.3844 59.7129 24.306 59.7129 26.9572C59.7129 29.5869 61.8251 31.5286 64.4229 31.5286C67.0194 31.5286 69.133 29.5869 69.133 26.9572C69.133 24.306 67.0194 22.3844 64.4229 22.3844ZM64.4229 29.728C62.9991 29.728 61.7713 28.5845 61.7713 26.9572C61.7713 25.3084 62.9991 24.185 64.4229 24.185C65.8453 24.185 67.069 25.3084 67.069 26.9572C67.069 28.5845 65.8453 29.728 64.4229 29.728ZM52.1939 23.7859V25.729H56.9577C56.8184 26.8148 56.4459 27.6129 55.8747 28.1693C55.1794 28.8411 54.0964 29.5869 52.1939 29.5869C49.2622 29.5869 46.9665 27.2824 46.9665 24.4269C46.9665 21.5715 49.2622 19.2669 52.1939 19.2669C53.7791 19.2669 54.9324 19.8703 55.7837 20.6523L57.1895 19.283C55.9989 18.1758 54.4151 17.3252 52.1939 17.3252C48.1736 17.3252 44.7949 20.5112 44.7949 24.4269C44.7949 28.3426 48.1736 31.5286 52.1939 31.5286C54.3668 31.5286 55.9989 30.8353 57.2819 29.5345C58.5967 28.2539 59.0065 26.4533 59.0065 24.9994C59.0065 24.5479 58.9679 24.1326 58.8989 23.7859H52.1939ZM102.2 25.2923C101.812 24.2697 100.616 22.3844 98.1797 22.3844C95.7653 22.3844 93.7552 24.2374 93.7552 26.9572C93.7552 29.5184 95.7446 31.5286 98.4114 31.5286C100.568 31.5286 101.812 30.248 102.324 29.5023L100.724 28.4635C100.19 29.2241 99.4627 29.728 98.4114 29.728C97.3671 29.728 96.6179 29.2617 96.1378 28.3426L102.417 25.8123L102.2 25.2923ZM95.7984 26.8148C95.7446 25.0518 97.2043 24.1488 98.25 24.1488C99.0695 24.1488 99.7649 24.5479 99.9966 25.1189L95.7984 26.8148ZM90.6952 31.2505H92.7591V17.813H90.6952V31.2505ZM87.3151 23.403H87.2461C86.7826 22.8682 85.8982 22.3844 84.778 22.3844C82.4271 22.3844 80.2776 24.3947 80.2776 26.972C80.2776 29.5345 82.4271 31.5286 84.778 31.5286C85.8982 31.5286 86.7826 31.0409 87.2461 30.4899H87.3151V31.1457C87.3151 32.8939 86.3562 33.8332 84.8097 33.8332C83.5487 33.8332 82.7665 32.9463 82.4436 32.2005L80.6487 32.9302C81.1661 34.1422 82.5361 35.6338 84.8097 35.6338C87.2296 35.6338 89.2714 34.247 89.2714 30.8729V22.6626H87.3151V23.403ZM84.9545 29.728C83.5322 29.728 82.3415 28.5684 82.3415 26.972C82.3415 25.3608 83.5322 24.185 84.9545 24.185C86.3563 24.185 87.4613 25.3608 87.4613 26.972C87.4613 28.5684 86.3563 29.728 84.9545 29.728ZM111.863 17.813H106.927V31.2505H108.985V26.159H111.863C114.149 26.159 116.391 24.5479 116.391 21.9853C116.391 19.4241 114.143 17.813 111.863 17.813ZM111.917 24.2899H108.985V19.6821H111.917C113.454 19.6821 114.331 20.9251 114.331 21.9853C114.331 23.0254 113.454 24.2899 111.917 24.2899ZM124.641 22.3589C123.154 22.3589 121.607 22.9985 120.971 24.4162L122.798 25.1619C123.191 24.4162 123.914 24.1743 124.678 24.1743C125.746 24.1743 126.829 24.7991 126.846 25.9024V26.0434C126.473 25.8338 125.676 25.5234 124.695 25.5234C122.727 25.5234 120.723 26.5783 120.723 28.5469C120.723 30.3475 122.334 31.5071 124.146 31.5071C125.531 31.5071 126.295 30.8984 126.775 30.1903H126.846V31.229H128.834V26.0744C128.834 23.6919 127.007 22.3589 124.641 22.3589ZM124.393 29.7226C123.719 29.7226 122.781 29.3974 122.781 28.5845C122.781 27.5444 123.951 27.1453 124.964 27.1453C125.87 27.1453 126.295 27.3402 126.846 27.5968C126.684 28.8411 125.585 29.7226 124.393 29.7226ZM136.077 22.6532L133.711 28.4783H133.64L131.194 22.6532H128.974L132.65 30.7936L130.553 35.3234H132.704L138.367 22.6532H136.077ZM117.522 31.2505H119.586V17.813H117.522V31.2505Z" fill="white"/>
<path d="M11.0157 7.104C10.6915 7.43457 10.5039 7.94922 10.5039 8.61572V32.3894C10.5039 33.0559 10.6915 33.5705 11.0157 33.9011L11.0958 33.9736L24.7734 20.6571V20.3426L11.0958 7.02607L11.0157 7.104Z" fill="url(#paint0_linear_60_277)"/>
<path d="M29.3276 25.0986L24.7734 20.6575V20.3431L29.3331 15.902L29.4352 15.9598L34.8351 18.9523C36.3761 19.8016 36.3761 21.1991 34.8351 22.0537L29.4352 25.0409L29.3276 25.0986Z" fill="url(#paint1_linear_60_277)"/>
<path d="M29.438 25.0404L24.7762 20.4999L11.0186 33.9011C11.5304 34.4252 12.3651 34.4883 13.3143 33.9643L29.438 25.0404Z" fill="url(#paint2_linear_60_277)"/>
<path d="M29.438 15.9585L13.3143 7.03465C12.3651 6.51596 11.5304 6.57912 11.0186 7.10318L24.7762 20.499L29.438 15.9585Z" fill="url(#paint3_linear_60_277)"/>
<defs>
<linearGradient id="paint0_linear_60_277" x1="23.559" y1="32.6369" x2="5.52418" y2="14.1206" gradientUnits="userSpaceOnUse">
<stop stop-color="#00A0FF"/>
<stop offset="0.0066" stop-color="#00A1FF"/>
<stop offset="0.2601" stop-color="#00BEFF"/>
<stop offset="0.5122" stop-color="#00D2FF"/>
<stop offset="0.7604" stop-color="#00DFFF"/>
<stop offset="1" stop-color="#00E3FF"/>
</linearGradient>
<linearGradient id="paint1_linear_60_277" x1="36.8418" y1="20.4988" x2="10.1356" y2="20.4988" gradientUnits="userSpaceOnUse">
<stop stop-color="#FFE000"/>
<stop offset="0.4087" stop-color="#FFBD00"/>
<stop offset="0.7754" stop-color="#FFA500"/>
<stop offset="1" stop-color="#FF9C00"/>
</linearGradient>
<linearGradient id="paint2_linear_60_277" x1="26.9031" y1="18.0316" x2="2.44638" y2="-7.07813" gradientUnits="userSpaceOnUse">
<stop stop-color="#FF3A44"/>
<stop offset="1" stop-color="#C31162"/>
</linearGradient>
<linearGradient id="paint3_linear_60_277" x1="7.55546" y1="41.8096" x2="18.4765" y2="30.5971" gradientUnits="userSpaceOnUse">
<stop stop-color="#32A071"/>
<stop offset="0.0685" stop-color="#2DA771"/>
<stop offset="0.4762" stop-color="#15CF74"/>
<stop offset="0.8009" stop-color="#06E775"/>
<stop offset="1" stop-color="#00F076"/>
</linearGradient>
</defs>
</svg>
