<svg width="147" height="41" viewBox="0 0 147 41" fill="none" xmlns="http://www.w3.org/2000/svg">
<rect width="147" height="41" rx="8" fill="#1B1B1B"/>
<path d="M33.1339 20.055C33.1019 16.4785 36.0466 14.7385 36.1812 14.6575C34.5135 12.2129 31.9287 11.8789 31.0203 11.8523C28.8493 11.6226 26.7435 13.1583 25.6376 13.1583C24.5096 13.1583 22.8066 11.8745 20.9711 11.9122C18.6092 11.9488 16.3996 13.3237 15.1877 15.4587C12.6867 19.812 14.552 26.2093 16.9481 29.728C18.1467 31.4514 19.5473 33.3756 21.3806 33.3079C23.1741 33.2335 23.844 32.1582 26.0084 32.1582C28.1529 32.1582 28.782 33.3079 30.6517 33.2646C32.5765 33.2335 33.7884 31.5335 34.9451 29.7946C36.3302 27.8194 36.8865 25.8741 36.9086 25.7743C36.8633 25.7587 33.1703 24.3417 33.1339 20.055Z" fill="#FFFFFB"/>
<path d="M29.6021 9.53747C30.5667 8.32459 31.2267 6.6745 31.0435 5C29.6473 5.06214 27.9013 5.97097 26.8958 7.15721C26.0062 8.20253 25.2115 9.91587 25.4168 11.5271C26.9852 11.6447 28.5955 10.7315 29.6021 9.53747Z" fill="#FFFFFB"/>
<path d="M58.2087 32.8676H55.7022L54.3292 28.6654H49.5568L48.2489 32.8676H45.8086L50.5369 18.5615H53.4573L58.2087 32.8676ZM53.9153 26.9024L52.6736 23.1668C52.5423 22.7852 52.2962 21.8865 51.933 20.4718H51.8889C51.7443 21.0802 51.5114 21.9789 51.1914 23.1668L49.9718 26.9024H53.9153Z" fill="#FFFFFB"/>
<path d="M70.3673 27.5826C70.3673 29.337 69.8806 30.7238 68.9071 31.7418C68.0352 32.648 66.9524 33.1006 65.66 33.1006C64.2649 33.1006 63.2628 32.6125 62.6524 31.6364H62.6083V37.0706H60.2552V25.9475C60.2552 24.8446 60.2254 23.7126 60.168 22.5516H62.2374L62.3688 24.1867H62.4129C63.1976 22.9547 64.3885 22.3398 65.9867 22.3398C67.2361 22.3398 68.2791 22.8204 69.1135 23.7825C69.9501 24.7457 70.3673 26.012 70.3673 27.5826ZM67.9701 27.6665C67.9701 26.6624 67.7383 25.8347 67.2725 25.1832C66.7637 24.5038 66.0805 24.1641 65.224 24.1641C64.6435 24.1641 64.1159 24.3533 63.6446 24.7263C63.1722 25.1026 62.8632 25.5939 62.7186 26.2023C62.6458 26.4861 62.6094 26.7183 62.6094 26.9011V28.6211C62.6094 29.3714 62.8456 30.0046 63.3179 30.5217C63.7903 31.0387 64.404 31.2967 65.1589 31.2967C66.0452 31.2967 66.735 30.9635 67.2284 30.2991C67.7228 29.6337 67.9701 28.7565 67.9701 27.6665Z" fill="#FFFFFB"/>
<path d="M82.5498 27.5826C82.5498 29.337 82.0631 30.7238 81.0885 31.7418C80.2177 32.648 79.1349 33.1006 77.8425 33.1006C76.4474 33.1006 75.4452 32.6125 74.836 31.6364H74.7919V37.0706H72.4388V25.9475C72.4388 24.8446 72.409 23.7126 72.3516 22.5516H74.421L74.5524 24.1867H74.5965C75.3801 22.9547 76.571 22.3398 78.1703 22.3398C79.4186 22.3398 80.4616 22.8204 81.2982 23.7825C82.1315 24.7457 82.5498 26.012 82.5498 27.5826ZM80.1525 27.6665C80.1525 26.6624 79.9197 25.8347 79.4539 25.1832C78.9451 24.5038 78.2641 24.1641 77.4065 24.1641C76.8249 24.1641 76.2984 24.3533 75.826 24.7263C75.3536 25.1026 75.0457 25.5939 74.9011 26.2023C74.8294 26.4861 74.7919 26.7183 74.7919 26.9011V28.6211C74.7919 29.3714 75.028 30.0046 75.4982 30.5217C75.9706 31.0377 76.5843 31.2967 77.3414 31.2967C78.2277 31.2967 78.9175 30.9635 79.4109 30.2991C79.9053 29.6337 80.1525 28.7565 80.1525 27.6665Z" fill="#FFFFFB"/>
<path d="M96.1708 28.8554C96.1708 30.0723 95.737 31.0624 94.8662 31.8267C93.9093 32.662 92.5771 33.0791 90.8653 33.0791C89.2848 33.0791 88.0177 32.7824 87.0586 32.1879L87.6038 30.2776C88.6369 30.8861 89.7704 31.1914 91.0054 31.1914C91.8917 31.1914 92.5815 30.9957 93.0771 30.6066C93.5704 30.2174 93.8166 29.695 93.8166 29.0435C93.8166 28.463 93.6135 27.9739 93.2062 27.5772C92.8012 27.1805 92.1246 26.8118 91.1798 26.471C88.6082 25.5369 87.3235 24.1684 87.3235 22.3688C87.3235 21.1928 87.7738 20.2285 88.6755 19.4782C89.5739 18.7267 90.7726 18.3516 92.2714 18.3516C93.608 18.3516 94.7183 18.5784 95.6046 19.031L95.0163 20.8993C94.1885 20.4607 93.2526 20.2414 92.2052 20.2414C91.3774 20.2414 90.7306 20.4403 90.2671 20.8359C89.8753 21.1896 89.6788 21.6206 89.6788 22.1313C89.6788 22.6967 89.9028 23.1643 90.3531 23.532C90.745 23.8717 91.4569 24.2393 92.4899 24.636C93.7537 25.1316 94.6819 25.711 95.279 26.3754C95.8739 27.0376 96.1708 27.8664 96.1708 28.8554Z" fill="#FFFFFB"/>
<path d="M103.949 24.2718H101.355V29.2802C101.355 30.5541 101.812 31.1905 102.728 31.1905C103.149 31.1905 103.498 31.155 103.774 31.084L103.839 32.8245C103.375 32.9932 102.765 33.0782 102.009 33.0782C101.079 33.0782 100.353 32.8019 99.8289 32.2504C99.3069 31.6979 99.0442 30.7712 99.0442 29.4694V24.2696H97.499V22.5496H99.0442V20.6608L101.355 19.9814V22.5496H103.949V24.2718Z" fill="#FFFFFB"/>
<path d="M115.653 27.6244C115.653 29.2101 115.187 30.5119 114.258 31.5299C113.283 32.578 111.99 33.1005 110.377 33.1005C108.823 33.1005 107.586 32.5985 106.663 31.5944C105.741 30.5904 105.279 29.3229 105.279 27.7954C105.279 26.1968 105.754 24.8875 106.706 23.8695C107.657 22.8504 108.939 22.3408 110.552 22.3408C112.106 22.3408 113.356 22.8428 114.3 23.848C115.203 24.823 115.653 26.0818 115.653 27.6244ZM113.212 27.6986C113.212 26.7472 113.003 25.9313 112.58 25.2508C112.087 24.4274 111.382 24.0167 110.468 24.0167C109.522 24.0167 108.803 24.4285 108.31 25.2508C107.887 25.9324 107.679 26.7612 107.679 27.7416C107.679 28.693 107.887 29.5089 108.31 30.1883C108.819 31.0118 109.53 31.4224 110.447 31.4224C111.345 31.4224 112.051 31.0032 112.559 30.1668C112.993 29.4734 113.212 28.6489 113.212 27.6986Z" fill="#FFFFFB"/>
<path d="M123.301 24.5672C123.068 24.5253 122.82 24.5038 122.56 24.5038C121.732 24.5038 121.092 24.808 120.641 25.4176C120.249 25.9551 120.053 26.6345 120.053 27.4547V32.8673H117.701L117.723 25.8003C117.723 24.6113 117.693 23.5288 117.635 22.5527H119.684L119.77 24.5264H119.836C120.084 23.8481 120.476 23.302 121.012 22.8924C121.536 22.5237 122.103 22.3398 122.713 22.3398C122.93 22.3398 123.127 22.3549 123.301 22.3818V24.5672Z" fill="#FFFFFB"/>
<path d="M133.824 27.2212C133.824 27.6319 133.797 27.978 133.738 28.2608H126.679C126.707 29.2799 127.048 30.0592 127.703 30.5967C128.298 31.0773 129.068 31.3181 130.012 31.3181C131.058 31.3181 132.011 31.1557 132.869 30.83L133.237 32.421C132.235 32.8467 131.052 33.0585 129.687 33.0585C128.044 33.0585 126.755 32.5876 125.817 31.647C124.881 30.7064 124.412 29.4433 124.412 27.8587C124.412 26.3032 124.848 25.0078 125.721 23.9747C126.635 22.8718 127.87 22.3203 129.424 22.3203C130.95 22.3203 132.106 22.8718 132.891 23.9747C133.512 24.8509 133.824 25.9345 133.824 27.2212ZM131.581 26.6268C131.596 25.9474 131.443 25.3604 131.124 24.8648C130.716 24.2274 130.091 23.9092 129.249 23.9092C128.479 23.9092 127.853 24.2198 127.376 24.8433C126.984 25.3389 126.751 25.9334 126.679 26.6257H131.581V26.6268Z" fill="#FFFFFB"/>
<path d="M53.1344 9.75862C53.1344 11.0239 52.7448 11.9763 51.9667 12.616C51.246 13.2061 50.2218 13.5018 48.8951 13.5018C48.2373 13.5018 47.6744 13.4738 47.2031 13.4179V6.5046C47.8179 6.40785 48.4801 6.3584 49.1953 6.3584C50.4591 6.3584 51.4116 6.62607 52.0539 7.16142C52.7735 7.76665 53.1344 8.63202 53.1344 9.75862ZM51.9148 9.7898C51.9148 8.96957 51.6919 8.3407 51.246 7.9021C50.8001 7.46457 50.1489 7.24527 49.2913 7.24527C48.9271 7.24527 48.617 7.26892 48.3598 7.31837V12.574C48.5022 12.5955 48.7627 12.6052 49.1412 12.6052C50.0264 12.6052 50.7096 12.3655 51.1908 11.886C51.672 11.4066 51.9148 10.7078 51.9148 9.7898Z" fill="#FFFFFB"/>
<path d="M59.6017 10.8636C59.6017 11.643 59.3732 12.2815 58.9163 12.7825C58.4373 13.2974 57.8026 13.5543 57.0102 13.5543C56.2464 13.5543 55.6383 13.3082 55.1846 12.8137C54.7321 12.3202 54.5059 11.6978 54.5059 10.9475C54.5059 10.1627 54.7387 9.51878 55.2067 9.0189C55.6747 8.51903 56.3038 8.26855 57.0963 8.26855C57.86 8.26855 58.4737 8.51473 58.9383 9.00815C59.3798 9.4876 59.6017 10.1068 59.6017 10.8636ZM58.4019 10.9002C58.4019 10.4325 58.2982 10.0316 58.0918 9.69723C57.849 9.29303 57.5035 9.09093 57.0543 9.09093C56.5897 9.09093 56.2365 9.29303 55.9937 9.69723C55.7862 10.0316 55.6835 10.439 55.6835 10.9206C55.6835 11.3882 55.7873 11.7892 55.9937 12.1235C56.2442 12.5277 56.593 12.7298 57.0433 12.7298C57.4848 12.7298 57.8313 12.5245 58.0808 12.1128C58.2949 11.772 58.4019 11.3678 58.4019 10.9002Z" fill="#FFFFFB"/>
<path d="M68.2717 8.37207L66.6437 13.4396H65.5842L64.9098 11.2391C64.7387 10.6898 64.5997 10.1437 64.4915 9.60187H64.4705C64.3701 10.1587 64.231 10.7037 64.0522 11.2391L63.3359 13.4396H62.2642L60.7334 8.37207H61.9221L62.5104 10.7811C62.6527 11.3509 62.7697 11.8938 62.8635 12.4076H62.8845C62.9706 11.9841 63.113 11.4444 63.3139 10.7919L64.0522 8.37315H64.9948L65.7023 10.7403C65.8733 11.3176 66.0124 11.8733 66.1195 12.4087H66.1515C66.2298 11.8873 66.3479 11.3315 66.5047 10.7403L67.136 8.37315H68.2717V8.37207Z" fill="#FFFFFB"/>
<path d="M74.2675 13.4396H73.1108V10.5371C73.1108 9.6427 72.7621 9.1955 72.0623 9.1955C71.7191 9.1955 71.442 9.31805 71.2268 9.56423C71.0138 9.8104 70.9056 10.1007 70.9056 10.4328V13.4385H69.749V9.82008C69.749 9.37503 69.7346 8.89235 69.707 8.3699H70.7235L70.7776 9.16218H70.8096C70.9443 8.916 71.1452 8.71283 71.4089 8.5505C71.7224 8.3613 72.0734 8.26562 72.4575 8.26562C72.9431 8.26562 73.347 8.41828 73.6682 8.72465C74.0678 9.09983 74.2675 9.6599 74.2675 10.4038V13.4396Z" fill="#FFFFFB"/>
<path d="M77.4583 13.4396H76.3027V6.04688H77.4583V13.4396Z" fill="#FFFFFB"/>
<path d="M84.2677 10.8636C84.2677 11.643 84.0392 12.2815 83.5823 12.7825C83.1033 13.2974 82.4675 13.5543 81.6762 13.5543C80.9113 13.5543 80.3032 13.3082 79.8507 12.8137C79.3981 12.3202 79.1719 11.6978 79.1719 10.9475C79.1719 10.1627 79.4048 9.51878 79.8727 9.0189C80.3407 8.51903 80.9698 8.26855 81.7612 8.26855C82.526 8.26855 83.1386 8.51473 83.6043 9.00815C84.0458 9.4876 84.2677 10.1068 84.2677 10.8636ZM83.0668 10.9002C83.0668 10.4325 82.9631 10.0316 82.7567 9.69723C82.515 9.29303 82.1684 9.09093 81.7203 9.09093C81.2546 9.09093 80.9014 9.29303 80.6597 9.69723C80.4522 10.0316 80.3495 10.439 80.3495 10.9206C80.3495 11.3882 80.4533 11.7892 80.6597 12.1235C80.9102 12.5277 81.259 12.7298 81.7093 12.7298C82.1508 12.7298 82.4962 12.5245 82.7457 12.1128C82.9609 11.772 83.0668 11.3678 83.0668 10.9002Z" fill="#FFFFFB"/>
<path d="M89.8651 13.4393H88.8265L88.7404 12.8556H88.7084C88.353 13.3211 87.8464 13.5543 87.1886 13.5543C86.6975 13.5543 86.3001 13.4006 86.001 13.0953C85.7295 12.818 85.5938 12.4729 85.5938 12.0633C85.5938 11.4441 85.8586 10.9722 86.3917 10.6454C86.9237 10.3186 87.672 10.1584 88.6356 10.1659V10.0713C88.6356 9.40375 88.2757 9.0705 87.555 9.0705C87.0418 9.0705 86.5893 9.19628 86.1986 9.44568L85.9635 8.70608C86.4469 8.41475 87.044 8.26855 87.7482 8.26855C89.1079 8.26855 89.79 8.9673 89.79 10.3648V12.231C89.79 12.7373 89.8154 13.1405 89.8651 13.4393ZM88.6642 11.6978V10.9163C87.3884 10.8948 86.7504 11.2356 86.7504 11.9375C86.7504 12.202 86.8233 12.3998 86.9723 12.532C87.1213 12.6642 87.3111 12.7298 87.5374 12.7298C87.7912 12.7298 88.0285 12.6513 88.2448 12.4955C88.4623 12.3385 88.5958 12.1396 88.6455 11.8956C88.6576 11.8408 88.6642 11.7741 88.6642 11.6978Z" fill="#FFFFFB"/>
<path d="M96.4393 13.4396H95.4129L95.3588 12.6259H95.3268C94.999 13.2451 94.4405 13.5547 93.6558 13.5547C93.0289 13.5547 92.5068 13.3149 92.0929 12.8355C91.679 12.356 91.4727 11.7336 91.4727 10.9693C91.4727 10.1491 91.6967 9.48472 92.147 8.97732C92.583 8.50432 93.1172 8.26782 93.7529 8.26782C94.4515 8.26782 94.9405 8.4968 95.2186 8.95582H95.2407V6.04688H96.3985V12.0744C96.3985 12.5678 96.4117 13.0225 96.4393 13.4396ZM95.2407 11.3025V10.4576C95.2407 10.3114 95.2297 10.1932 95.2087 10.1028C95.1436 9.83195 95.0034 9.60405 94.7904 9.42022C94.5752 9.2364 94.3158 9.14395 94.0167 9.14395C93.5851 9.14395 93.2474 9.31057 92.9991 9.6449C92.7529 9.97922 92.6282 10.406 92.6282 10.9274C92.6282 11.4283 92.7463 11.8347 92.9836 12.1475C93.2342 12.4807 93.5719 12.6474 93.9946 12.6474C94.3743 12.6474 94.6778 12.5087 94.9085 12.2303C95.1314 11.9733 95.2407 11.6637 95.2407 11.3025Z" fill="#FFFFFB"/>
<path d="M106.331 10.8636C106.331 11.643 106.103 12.2815 105.646 12.7825C105.167 13.2974 104.533 13.5543 103.74 13.5543C102.977 13.5543 102.369 13.3082 101.914 12.8137C101.462 12.3202 101.235 11.6978 101.235 10.9475C101.235 10.1627 101.468 9.51878 101.936 9.0189C102.404 8.51903 103.033 8.26855 103.827 8.26855C104.59 8.26855 105.204 8.51473 105.668 9.00815C106.109 9.4876 106.331 10.1068 106.331 10.8636ZM105.133 10.9002C105.133 10.4325 105.029 10.0316 104.822 9.69723C104.578 9.29303 104.234 9.09093 103.784 9.09093C103.32 9.09093 102.967 9.29303 102.723 9.69723C102.516 10.0316 102.413 10.439 102.413 10.9206C102.413 11.3882 102.517 11.7892 102.723 12.1235C102.974 12.5277 103.322 12.7298 103.773 12.7298C104.214 12.7298 104.562 12.5245 104.811 12.1128C105.024 11.772 105.133 11.3678 105.133 10.9002Z" fill="#FFFFFB"/>
<path d="M112.55 13.4396H111.394V10.5371C111.394 9.6427 111.045 9.1955 110.344 9.1955C110.001 9.1955 109.724 9.31805 109.51 9.56423C109.296 9.8104 109.189 10.1007 109.189 10.4328V13.4385H108.031V9.82008C108.031 9.37503 108.018 8.89235 107.99 8.3699H109.006L109.06 9.16218H109.092C109.227 8.916 109.428 8.71283 109.691 8.5505C110.006 8.3613 110.355 8.26562 110.741 8.26562C111.225 8.26562 111.629 8.41828 111.95 8.72465C112.351 9.09983 112.55 9.6599 112.55 10.4038V13.4396Z" fill="#FFFFFB"/>
<path d="M120.335 9.21628H119.061V11.678C119.061 12.3037 119.287 12.6165 119.735 12.6165C119.943 12.6165 120.115 12.5993 120.251 12.5638L120.281 13.4185C120.052 13.5023 119.752 13.5442 119.382 13.5442C118.925 13.5442 118.57 13.4088 118.313 13.1379C118.054 12.867 117.926 12.4112 117.926 11.7716V9.21628H117.166V8.3724H117.926V7.4436L119.06 7.11035V8.37133H120.334V9.21628H120.335Z" fill="#FFFFFB"/>
<path d="M126.459 13.4396H125.301V10.5587C125.301 9.65028 124.952 9.19555 124.254 9.19555C123.717 9.19555 123.351 9.45893 123.15 9.98568C123.116 10.0964 123.096 10.2319 123.096 10.391V13.4386H121.94V6.04688H123.096V9.10095H123.118C123.482 8.54518 124.004 8.26782 124.681 8.26782C125.16 8.26782 125.556 8.42047 125.871 8.72685C126.263 9.10847 126.459 9.67607 126.459 10.4264V13.4396Z" fill="#FFFFFB"/>
<path d="M132.774 10.6667C132.774 10.8688 132.759 11.0386 132.731 11.1773H129.262C129.278 11.6783 129.443 12.0599 129.764 12.3243C130.058 12.5608 130.436 12.6791 130.9 12.6791C131.413 12.6791 131.881 12.5995 132.303 12.4394L132.484 13.222C131.99 13.4305 131.41 13.5348 130.738 13.5348C129.932 13.5348 129.297 13.3037 128.838 12.8414C128.377 12.3792 128.148 11.7589 128.148 10.9806C128.148 10.2163 128.361 9.57987 128.791 9.07247C129.239 8.53067 129.845 8.25977 130.61 8.25977C131.358 8.25977 131.926 8.53067 132.311 9.07247C132.621 9.50247 132.774 10.0346 132.774 10.6667ZM131.67 10.3754C131.679 10.041 131.603 9.75294 131.446 9.50999C131.245 9.19717 130.94 9.04022 130.526 9.04022C130.148 9.04022 129.84 9.19287 129.605 9.49924C129.413 9.74327 129.3 10.0346 129.262 10.3754H131.67Z" fill="#FFFFFB"/>
</svg>
