<svg width="148" height="41" viewBox="0 0 148 41" fill="none" xmlns="http://www.w3.org/2000/svg">
<rect x="0.5" width="147" height="41" rx="8" fill="#1B1B1B"/>
<path d="M33.6339 20.055C33.6019 16.4785 36.5466 14.7385 36.6812 14.6575C35.0135 12.2129 32.4287 11.8789 31.5203 11.8523C29.3493 11.6226 27.2435 13.1583 26.1376 13.1583C25.0096 13.1583 23.3066 11.8745 21.4711 11.9122C19.1092 11.9488 16.8996 13.3237 15.6877 15.4587C13.1867 19.812 15.052 26.2093 17.4481 29.728C18.6467 31.4514 20.0473 33.3756 21.8806 33.3079C23.6741 33.2335 24.344 32.1582 26.5084 32.1582C28.6529 32.1582 29.282 33.3079 31.1517 33.2646C33.0765 33.2335 34.2884 31.5335 35.4451 29.7946C36.8302 27.8194 37.3865 25.8741 37.4086 25.7743C37.3633 25.7587 33.6703 24.3417 33.6339 20.055Z" fill="#FFFFFB"/>
<path d="M30.1021 9.53747C31.0667 8.32459 31.7267 6.6745 31.5435 5C30.1473 5.06214 28.4013 5.97097 27.3958 7.15721C26.5062 8.20253 25.7115 9.91587 25.9168 11.5271C27.4852 11.6447 29.0955 10.7315 30.1021 9.53747Z" fill="#FFFFFB"/>
<path d="M58.7087 32.8676H56.2022L54.8292 28.6654H50.0568L48.7489 32.8676H46.3086L51.0369 18.5615H53.9573L58.7087 32.8676ZM54.4153 26.9024L53.1736 23.1668C53.0423 22.7852 52.7962 21.8865 52.433 20.4718H52.3889C52.2443 21.0802 52.0114 21.9789 51.6914 23.1668L50.4718 26.9024H54.4153Z" fill="#FFFFFB"/>
<path d="M70.8673 27.5826C70.8673 29.337 70.3806 30.7238 69.4071 31.7418C68.5352 32.648 67.4524 33.1006 66.16 33.1006C64.7649 33.1006 63.7628 32.6125 63.1524 31.6364H63.1083V37.0706H60.7552V25.9475C60.7552 24.8446 60.7254 23.7126 60.668 22.5516H62.7374L62.8688 24.1867H62.9129C63.6976 22.9547 64.8885 22.3398 66.4867 22.3398C67.7361 22.3398 68.7791 22.8204 69.6135 23.7825C70.4501 24.7457 70.8673 26.012 70.8673 27.5826ZM68.4701 27.6665C68.4701 26.6624 68.2383 25.8347 67.7725 25.1832C67.2637 24.5038 66.5805 24.1641 65.724 24.1641C65.1435 24.1641 64.6159 24.3533 64.1446 24.7263C63.6722 25.1026 63.3632 25.5939 63.2186 26.2023C63.1458 26.4861 63.1094 26.7183 63.1094 26.9011V28.6211C63.1094 29.3714 63.3456 30.0046 63.8179 30.5217C64.2903 31.0387 64.904 31.2967 65.6589 31.2967C66.5452 31.2967 67.235 30.9635 67.7284 30.2991C68.2228 29.6337 68.4701 28.7565 68.4701 27.6665Z" fill="#FFFFFB"/>
<path d="M83.0498 27.5826C83.0498 29.337 82.5631 30.7238 81.5885 31.7418C80.7177 32.648 79.6349 33.1006 78.3425 33.1006C76.9474 33.1006 75.9452 32.6125 75.336 31.6364H75.2919V37.0706H72.9388V25.9475C72.9388 24.8446 72.909 23.7126 72.8516 22.5516H74.921L75.0524 24.1867H75.0965C75.8801 22.9547 77.071 22.3398 78.6703 22.3398C79.9186 22.3398 80.9616 22.8204 81.7982 23.7825C82.6315 24.7457 83.0498 26.012 83.0498 27.5826ZM80.6525 27.6665C80.6525 26.6624 80.4197 25.8347 79.9539 25.1832C79.4451 24.5038 78.7641 24.1641 77.9065 24.1641C77.3249 24.1641 76.7984 24.3533 76.326 24.7263C75.8536 25.1026 75.5457 25.5939 75.4011 26.2023C75.3294 26.4861 75.2919 26.7183 75.2919 26.9011V28.6211C75.2919 29.3714 75.528 30.0046 75.9982 30.5217C76.4706 31.0377 77.0843 31.2967 77.8414 31.2967C78.7277 31.2967 79.4175 30.9635 79.9109 30.2991C80.4053 29.6337 80.6525 28.7565 80.6525 27.6665Z" fill="#FFFFFB"/>
<path d="M96.6708 28.8554C96.6708 30.0723 96.237 31.0624 95.3662 31.8267C94.4093 32.662 93.0771 33.0791 91.3653 33.0791C89.7848 33.0791 88.5177 32.7824 87.5586 32.1879L88.1038 30.2776C89.1369 30.8861 90.2704 31.1914 91.5054 31.1914C92.3917 31.1914 93.0815 30.9957 93.5771 30.6066C94.0704 30.2174 94.3166 29.695 94.3166 29.0435C94.3166 28.463 94.1135 27.9739 93.7062 27.5772C93.3012 27.1805 92.6246 26.8118 91.6798 26.471C89.1082 25.5369 87.8235 24.1684 87.8235 22.3688C87.8235 21.1928 88.2738 20.2285 89.1755 19.4782C90.0739 18.7267 91.2726 18.3516 92.7714 18.3516C94.108 18.3516 95.2183 18.5784 96.1046 19.031L95.5163 20.8993C94.6885 20.4607 93.7526 20.2414 92.7052 20.2414C91.8774 20.2414 91.2306 20.4403 90.7671 20.8359C90.3753 21.1896 90.1788 21.6206 90.1788 22.1313C90.1788 22.6967 90.4028 23.1643 90.8531 23.532C91.245 23.8717 91.9569 24.2393 92.9899 24.636C94.2537 25.1316 95.1819 25.711 95.779 26.3754C96.3739 27.0376 96.6708 27.8664 96.6708 28.8554Z" fill="#FFFFFB"/>
<path d="M104.449 24.2718H101.855V29.2802C101.855 30.5541 102.312 31.1905 103.228 31.1905C103.649 31.1905 103.998 31.155 104.274 31.084L104.339 32.8245C103.875 32.9932 103.265 33.0782 102.509 33.0782C101.579 33.0782 100.853 32.8019 100.329 32.2504C99.8069 31.6979 99.5442 30.7712 99.5442 29.4694V24.2696H97.999V22.5496H99.5442V20.6608L101.855 19.9814V22.5496H104.449V24.2718Z" fill="#FFFFFB"/>
<path d="M116.153 27.6244C116.153 29.2101 115.687 30.5119 114.758 31.5299C113.783 32.578 112.49 33.1005 110.877 33.1005C109.323 33.1005 108.086 32.5985 107.163 31.5944C106.241 30.5904 105.779 29.3229 105.779 27.7954C105.779 26.1968 106.254 24.8875 107.206 23.8695C108.157 22.8504 109.439 22.3408 111.052 22.3408C112.606 22.3408 113.856 22.8428 114.8 23.848C115.703 24.823 116.153 26.0818 116.153 27.6244ZM113.712 27.6986C113.712 26.7472 113.503 25.9313 113.08 25.2508C112.587 24.4274 111.882 24.0167 110.968 24.0167C110.022 24.0167 109.303 24.4285 108.81 25.2508C108.387 25.9324 108.179 26.7612 108.179 27.7416C108.179 28.693 108.387 29.5089 108.81 30.1883C109.319 31.0118 110.03 31.4224 110.947 31.4224C111.845 31.4224 112.551 31.0032 113.059 30.1668C113.493 29.4734 113.712 28.6489 113.712 27.6986Z" fill="#FFFFFB"/>
<path d="M123.801 24.5672C123.568 24.5253 123.32 24.5038 123.06 24.5038C122.232 24.5038 121.592 24.808 121.141 25.4176C120.749 25.9551 120.553 26.6345 120.553 27.4547V32.8673H118.201L118.223 25.8003C118.223 24.6113 118.193 23.5288 118.135 22.5527H120.184L120.27 24.5264H120.336C120.584 23.8481 120.976 23.302 121.512 22.8924C122.036 22.5237 122.603 22.3398 123.213 22.3398C123.43 22.3398 123.627 22.3549 123.801 22.3818V24.5672Z" fill="#FFFFFB"/>
<path d="M134.324 27.2212C134.324 27.6319 134.297 27.978 134.238 28.2608H127.179C127.207 29.2799 127.548 30.0592 128.203 30.5967C128.798 31.0773 129.568 31.3181 130.512 31.3181C131.558 31.3181 132.511 31.1557 133.369 30.83L133.737 32.421C132.735 32.8467 131.552 33.0585 130.187 33.0585C128.544 33.0585 127.255 32.5876 126.317 31.647C125.381 30.7064 124.912 29.4433 124.912 27.8587C124.912 26.3032 125.348 25.0078 126.221 23.9747C127.135 22.8718 128.37 22.3203 129.924 22.3203C131.45 22.3203 132.606 22.8718 133.391 23.9747C134.012 24.8509 134.324 25.9345 134.324 27.2212ZM132.081 26.6268C132.096 25.9474 131.943 25.3604 131.624 24.8648C131.216 24.2274 130.591 23.9092 129.749 23.9092C128.979 23.9092 128.353 24.2198 127.876 24.8433C127.484 25.3389 127.251 25.9334 127.179 26.6257H132.081V26.6268Z" fill="#FFFFFB"/>
<path d="M53.6344 9.75862C53.6344 11.0239 53.2448 11.9763 52.4667 12.616C51.746 13.2061 50.7218 13.5018 49.3951 13.5018C48.7373 13.5018 48.1744 13.4738 47.7031 13.4179V6.5046C48.3179 6.40785 48.9801 6.3584 49.6953 6.3584C50.9591 6.3584 51.9116 6.62607 52.5539 7.16142C53.2735 7.76665 53.6344 8.63202 53.6344 9.75862ZM52.4148 9.7898C52.4148 8.96957 52.1919 8.3407 51.746 7.9021C51.3001 7.46457 50.6489 7.24527 49.7913 7.24527C49.4271 7.24527 49.117 7.26892 48.8598 7.31837V12.574C49.0022 12.5955 49.2627 12.6052 49.6412 12.6052C50.5264 12.6052 51.2096 12.3655 51.6908 11.886C52.172 11.4066 52.4148 10.7078 52.4148 9.7898Z" fill="#FFFFFB"/>
<path d="M60.1017 10.8636C60.1017 11.643 59.8732 12.2815 59.4163 12.7825C58.9373 13.2974 58.3026 13.5543 57.5102 13.5543C56.7464 13.5543 56.1383 13.3082 55.6846 12.8137C55.2321 12.3202 55.0059 11.6978 55.0059 10.9475C55.0059 10.1627 55.2387 9.51878 55.7067 9.0189C56.1747 8.51903 56.8038 8.26855 57.5963 8.26855C58.36 8.26855 58.9737 8.51473 59.4383 9.00815C59.8798 9.4876 60.1017 10.1068 60.1017 10.8636ZM58.9019 10.9002C58.9019 10.4325 58.7982 10.0316 58.5918 9.69723C58.349 9.29303 58.0035 9.09093 57.5543 9.09093C57.0897 9.09093 56.7365 9.29303 56.4937 9.69723C56.2862 10.0316 56.1835 10.439 56.1835 10.9206C56.1835 11.3882 56.2873 11.7892 56.4937 12.1235C56.7442 12.5277 57.093 12.7298 57.5433 12.7298C57.9848 12.7298 58.3313 12.5245 58.5808 12.1128C58.7949 11.772 58.9019 11.3678 58.9019 10.9002Z" fill="#FFFFFB"/>
<path d="M68.7717 8.37207L67.1437 13.4396H66.0842L65.4098 11.2391C65.2387 10.6898 65.0997 10.1437 64.9915 9.60187H64.9705C64.8701 10.1587 64.731 10.7037 64.5522 11.2391L63.8359 13.4396H62.7642L61.2334 8.37207H62.4221L63.0104 10.7811C63.1527 11.3509 63.2697 11.8938 63.3635 12.4076H63.3845C63.4706 11.9841 63.613 11.4444 63.8139 10.7919L64.5522 8.37315H65.4948L66.2023 10.7403C66.3733 11.3176 66.5124 11.8733 66.6195 12.4087H66.6515C66.7298 11.8873 66.8479 11.3315 67.0047 10.7403L67.636 8.37315H68.7717V8.37207Z" fill="#FFFFFB"/>
<path d="M74.7675 13.4396H73.6108V10.5371C73.6108 9.6427 73.2621 9.1955 72.5623 9.1955C72.2191 9.1955 71.942 9.31805 71.7268 9.56423C71.5138 9.8104 71.4056 10.1007 71.4056 10.4328V13.4385H70.249V9.82008C70.249 9.37503 70.2346 8.89235 70.207 8.3699H71.2235L71.2776 9.16218H71.3096C71.4443 8.916 71.6452 8.71283 71.9089 8.5505C72.2224 8.3613 72.5734 8.26562 72.9575 8.26562C73.4431 8.26562 73.847 8.41828 74.1682 8.72465C74.5678 9.09983 74.7675 9.6599 74.7675 10.4038V13.4396Z" fill="#FFFFFB"/>
<path d="M77.9583 13.4396H76.8027V6.04688H77.9583V13.4396Z" fill="#FFFFFB"/>
<path d="M84.7677 10.8636C84.7677 11.643 84.5392 12.2815 84.0823 12.7825C83.6033 13.2974 82.9675 13.5543 82.1762 13.5543C81.4113 13.5543 80.8032 13.3082 80.3507 12.8137C79.8981 12.3202 79.6719 11.6978 79.6719 10.9475C79.6719 10.1627 79.9048 9.51878 80.3727 9.0189C80.8407 8.51903 81.4698 8.26855 82.2612 8.26855C83.026 8.26855 83.6386 8.51473 84.1043 9.00815C84.5458 9.4876 84.7677 10.1068 84.7677 10.8636ZM83.5668 10.9002C83.5668 10.4325 83.4631 10.0316 83.2567 9.69723C83.015 9.29303 82.6684 9.09093 82.2203 9.09093C81.7546 9.09093 81.4014 9.29303 81.1597 9.69723C80.9522 10.0316 80.8495 10.439 80.8495 10.9206C80.8495 11.3882 80.9533 11.7892 81.1597 12.1235C81.4102 12.5277 81.759 12.7298 82.2093 12.7298C82.6508 12.7298 82.9962 12.5245 83.2457 12.1128C83.4609 11.772 83.5668 11.3678 83.5668 10.9002Z" fill="#FFFFFB"/>
<path d="M90.3651 13.4393H89.3265L89.2404 12.8556H89.2084C88.853 13.3211 88.3464 13.5543 87.6886 13.5543C87.1975 13.5543 86.8001 13.4006 86.501 13.0953C86.2295 12.818 86.0938 12.4729 86.0938 12.0633C86.0938 11.4441 86.3586 10.9722 86.8917 10.6454C87.4237 10.3186 88.172 10.1584 89.1356 10.1659V10.0713C89.1356 9.40375 88.7757 9.0705 88.055 9.0705C87.5418 9.0705 87.0893 9.19628 86.6986 9.44568L86.4635 8.70608C86.9469 8.41475 87.544 8.26855 88.2482 8.26855C89.6079 8.26855 90.29 8.9673 90.29 10.3648V12.231C90.29 12.7373 90.3154 13.1405 90.3651 13.4393ZM89.1642 11.6978V10.9163C87.8884 10.8948 87.2504 11.2356 87.2504 11.9375C87.2504 12.202 87.3233 12.3998 87.4723 12.532C87.6213 12.6642 87.8111 12.7298 88.0374 12.7298C88.2912 12.7298 88.5285 12.6513 88.7448 12.4955C88.9623 12.3385 89.0958 12.1396 89.1455 11.8956C89.1576 11.8408 89.1642 11.7741 89.1642 11.6978Z" fill="#FFFFFB"/>
<path d="M96.9393 13.4396H95.9129L95.8588 12.6259H95.8268C95.499 13.2451 94.9405 13.5547 94.1558 13.5547C93.5289 13.5547 93.0068 13.3149 92.5929 12.8355C92.179 12.356 91.9727 11.7336 91.9727 10.9693C91.9727 10.1491 92.1967 9.48472 92.647 8.97732C93.083 8.50432 93.6172 8.26782 94.2529 8.26782C94.9515 8.26782 95.4405 8.4968 95.7186 8.95582H95.7407V6.04688H96.8985V12.0744C96.8985 12.5678 96.9117 13.0225 96.9393 13.4396ZM95.7407 11.3025V10.4576C95.7407 10.3114 95.7297 10.1932 95.7087 10.1028C95.6436 9.83195 95.5034 9.60405 95.2904 9.42022C95.0752 9.2364 94.8158 9.14395 94.5167 9.14395C94.0851 9.14395 93.7474 9.31057 93.4991 9.6449C93.2529 9.97922 93.1282 10.406 93.1282 10.9274C93.1282 11.4283 93.2463 11.8347 93.4836 12.1475C93.7342 12.4807 94.0719 12.6474 94.4946 12.6474C94.8743 12.6474 95.1778 12.5087 95.4085 12.2303C95.6314 11.9733 95.7407 11.6637 95.7407 11.3025Z" fill="#FFFFFB"/>
<path d="M106.831 10.8636C106.831 11.643 106.603 12.2815 106.146 12.7825C105.667 13.2974 105.033 13.5543 104.24 13.5543C103.477 13.5543 102.869 13.3082 102.414 12.8137C101.962 12.3202 101.735 11.6978 101.735 10.9475C101.735 10.1627 101.968 9.51878 102.436 9.0189C102.904 8.51903 103.533 8.26855 104.327 8.26855C105.09 8.26855 105.704 8.51473 106.168 9.00815C106.609 9.4876 106.831 10.1068 106.831 10.8636ZM105.633 10.9002C105.633 10.4325 105.529 10.0316 105.322 9.69723C105.078 9.29303 104.734 9.09093 104.284 9.09093C103.82 9.09093 103.467 9.29303 103.223 9.69723C103.016 10.0316 102.913 10.439 102.913 10.9206C102.913 11.3882 103.017 11.7892 103.223 12.1235C103.474 12.5277 103.822 12.7298 104.273 12.7298C104.714 12.7298 105.062 12.5245 105.311 12.1128C105.524 11.772 105.633 11.3678 105.633 10.9002Z" fill="#FFFFFB"/>
<path d="M113.05 13.4396H111.894V10.5371C111.894 9.6427 111.545 9.1955 110.844 9.1955C110.501 9.1955 110.224 9.31805 110.01 9.56423C109.796 9.8104 109.689 10.1007 109.689 10.4328V13.4385H108.531V9.82008C108.531 9.37503 108.518 8.89235 108.49 8.3699H109.506L109.56 9.16218H109.592C109.727 8.916 109.928 8.71283 110.191 8.5505C110.506 8.3613 110.855 8.26562 111.241 8.26562C111.725 8.26562 112.129 8.41828 112.45 8.72465C112.851 9.09983 113.05 9.6599 113.05 10.4038V13.4396Z" fill="#FFFFFB"/>
<path d="M120.835 9.21628H119.561V11.678C119.561 12.3037 119.787 12.6165 120.235 12.6165C120.443 12.6165 120.615 12.5993 120.751 12.5638L120.781 13.4185C120.552 13.5023 120.252 13.5442 119.882 13.5442C119.425 13.5442 119.07 13.4088 118.813 13.1379C118.554 12.867 118.426 12.4112 118.426 11.7716V9.21628H117.666V8.3724H118.426V7.4436L119.56 7.11035V8.37133H120.834V9.21628H120.835Z" fill="#FFFFFB"/>
<path d="M126.959 13.4396H125.801V10.5587C125.801 9.65028 125.452 9.19555 124.754 9.19555C124.217 9.19555 123.851 9.45893 123.65 9.98568C123.616 10.0964 123.596 10.2319 123.596 10.391V13.4386H122.44V6.04688H123.596V9.10095H123.618C123.982 8.54518 124.504 8.26782 125.181 8.26782C125.66 8.26782 126.056 8.42047 126.371 8.72685C126.763 9.10847 126.959 9.67607 126.959 10.4264V13.4396Z" fill="#FFFFFB"/>
<path d="M133.274 10.6667C133.274 10.8688 133.259 11.0386 133.231 11.1773H129.762C129.778 11.6783 129.943 12.0599 130.264 12.3243C130.558 12.5608 130.936 12.6791 131.4 12.6791C131.913 12.6791 132.381 12.5995 132.803 12.4394L132.984 13.222C132.49 13.4305 131.91 13.5348 131.238 13.5348C130.432 13.5348 129.797 13.3037 129.338 12.8414C128.877 12.3792 128.648 11.7589 128.648 10.9806C128.648 10.2163 128.861 9.57987 129.291 9.07247C129.739 8.53067 130.345 8.25977 131.11 8.25977C131.858 8.25977 132.426 8.53067 132.811 9.07247C133.121 9.50247 133.274 10.0346 133.274 10.6667ZM132.17 10.3754C132.179 10.041 132.103 9.75294 131.946 9.50999C131.745 9.19717 131.44 9.04022 131.026 9.04022C130.648 9.04022 130.34 9.19287 130.105 9.49924C129.913 9.74327 129.8 10.0346 129.762 10.3754H132.17Z" fill="#FFFFFB"/>
</svg>
