<svg width="92" height="56" viewBox="0 0 92 56" fill="none" xmlns="http://www.w3.org/2000/svg">
<g clip-path="url(#clip0_465_11312)">
<path d="M14.7071 42.4043L19.0981 38.4404C19.2994 38.2591 19.5592 38.1585 19.8286 38.1576H30.4618C30.5086 38.1581 30.5551 38.1491 30.5985 38.1312C30.6419 38.1133 30.6813 38.0868 30.7144 38.0532C30.7476 38.0196 30.7737 37.9797 30.7914 37.9357C30.8091 37.8918 30.818 37.8447 30.8175 37.7972V35.5344H33.0091V37.7972C33.0061 38.4827 32.7359 39.1393 32.2574 39.6241C31.7789 40.1088 31.1308 40.3825 30.4541 40.3855H20.2417L14.382 45.6745C14.2292 45.8295 14.0346 45.9352 13.8226 45.9785C13.6107 46.0219 13.3908 46.0008 13.1907 45.9181C12.9905 45.8353 12.8189 45.6945 12.6974 45.5133C12.5759 45.3321 12.51 45.1186 12.5078 44.8996V40.3855H9.55884C8.88147 40.3835 8.23237 40.1103 7.75304 39.6254C7.27371 39.1406 7.00303 38.4834 7 37.7972L7 21.0778C7.00796 20.3932 7.28023 19.7389 7.7585 19.2552C8.23676 18.7714 8.88301 18.4965 9.55884 18.4895H23.5808V20.7175H9.55884C9.46588 20.7229 9.37808 20.7625 9.31188 20.8288C9.24569 20.8952 9.20566 20.9837 9.1993 21.0778V37.7972C9.19964 37.8443 9.20929 37.8909 9.22769 37.9341C9.24608 37.9774 9.27285 38.0165 9.3064 38.0491C9.37441 38.1156 9.46435 38.1543 9.55884 38.1576H13.6056C13.8977 38.1576 14.1779 38.2751 14.3845 38.4844C14.5911 38.6937 14.7071 38.9775 14.7071 39.2735V42.4043ZM14.7874 34.8563L18.3216 24.042H21.699L25.2332 34.8563H22.4333L21.8405 32.888H18.1495L17.5719 34.8563H14.7874ZM18.7768 30.629H21.2132L20.0046 26.2002L18.7768 30.629ZM36.31 15.1727H39.6376V14.3048C39.6376 14.2339 39.6654 14.1659 39.7149 14.1158C39.7644 14.0656 39.8315 14.0375 39.9015 14.0375H41.6801C41.7146 14.0375 41.7487 14.0444 41.7805 14.0579C41.8123 14.0714 41.8412 14.0911 41.8654 14.116C41.8896 14.1409 41.9087 14.1704 41.9215 14.2028C41.9343 14.2352 41.9407 14.2699 41.9402 14.3048V15.1727H45.6733C45.7077 15.1727 45.7419 15.1797 45.7737 15.1932C45.8055 15.2067 45.8343 15.2264 45.8585 15.2513C45.8827 15.2762 45.9018 15.3057 45.9147 15.3381C45.9275 15.3705 45.9339 15.4052 45.9334 15.4401V17.1682C45.9334 17.2381 45.9059 17.3051 45.8572 17.3545C45.8084 17.4039 45.7422 17.4317 45.6733 17.4317H45.0804C45.0021 17.941 44.8857 18.4436 44.7323 18.9351V18.9583C44.5567 19.5128 44.334 20.0508 44.0668 20.5664C43.8216 21.0262 43.5482 21.4701 43.2483 21.8954C42.992 22.2829 42.709 22.6316 42.4068 22.9919C42.8391 23.5212 43.3095 24.0173 43.8144 24.4759C44.426 25.0085 45.0768 25.4929 45.7612 25.9251C45.7902 25.9436 45.8152 25.9678 45.8349 25.9961C45.8546 26.0245 45.8686 26.0565 45.876 26.0903C45.8835 26.1241 45.8843 26.1591 45.8784 26.1933C45.8725 26.2274 45.8599 26.2601 45.8416 26.2893L44.9274 27.7346C44.9085 27.7664 44.8832 27.794 44.8532 27.8154C44.8232 27.8368 44.7891 27.8516 44.7531 27.8589C44.7171 27.8662 44.68 27.8658 44.6441 27.8577C44.6083 27.8497 44.5745 27.8341 44.5449 27.8121C43.7953 27.3402 43.0818 26.8118 42.4106 26.2312C41.8651 25.738 41.3539 25.2072 40.8807 24.6426C40.3911 25.0843 39.9513 25.4989 39.5114 25.8863C38.9912 26.3203 38.4443 26.7388 37.8017 27.1882C37.7728 27.2108 37.7397 27.2271 37.7043 27.236C37.6689 27.2449 37.6321 27.2464 37.5962 27.2402C37.5603 27.234 37.526 27.2203 37.4955 27.2001C37.4651 27.1798 37.4391 27.1533 37.4192 27.1224L36.4515 25.7042C36.4292 25.675 36.4132 25.6414 36.4044 25.6056C36.3955 25.5698 36.3941 25.5325 36.4002 25.4961C36.4063 25.4597 36.4198 25.4249 36.4398 25.3941C36.4599 25.3632 36.486 25.3369 36.5165 25.3168C37.1514 24.875 37.664 24.4682 38.1842 24.0459C38.6278 23.6584 39.0562 23.2709 39.519 22.8214C39.133 22.2681 38.7792 21.6924 38.4596 21.0972C38.0951 20.3891 37.8066 19.6435 37.599 18.8731C37.5896 18.8398 37.5869 18.8049 37.5909 18.7705C37.5949 18.7361 37.6055 18.7028 37.6222 18.6726C37.6389 18.6424 37.6613 18.6158 37.6882 18.5943C37.715 18.5729 37.7458 18.557 37.7787 18.5476L39.4119 18.0865C39.4448 18.0771 39.4793 18.0743 39.5132 18.0784C39.5472 18.0824 39.58 18.0932 39.6099 18.1101C39.6397 18.127 39.666 18.1497 39.6871 18.1769C39.7083 18.2041 39.724 18.2353 39.7332 18.2686C39.996 19.2914 40.4392 20.2575 41.0413 21.1204L41.5271 20.4617C41.7368 20.1537 41.9296 19.8342 42.1047 19.5047C42.2901 19.1423 42.4462 18.7652 42.5713 18.3771C42.6718 18.0667 42.756 17.7511 42.8237 17.4317H36.3215C36.2521 17.4317 36.1856 17.4041 36.1362 17.3548C36.0868 17.3055 36.0585 17.2385 36.0575 17.1682V15.4246C36.0575 15.3537 36.0853 15.2857 36.1348 15.2356C36.1843 15.1854 36.2515 15.1572 36.3215 15.1572L36.31 15.1727ZM46.6371 37.1889L40.7583 31.896H30.5382C29.8615 31.892 29.2136 31.6181 28.7346 31.1337C28.2558 30.6493 27.9844 29.9933 27.9794 29.3077V12.5922C27.9854 11.904 28.2605 11.2464 28.7444 10.7633L28.8209 10.6936C29.2876 10.253 29.9003 10.0055 30.5382 10H51.4412C52.1193 10.0063 52.7673 10.285 53.2427 10.7749L53.3153 10.8524C53.7514 11.3276 53.9957 11.9512 54 12.5999V29.3077C53.995 29.9933 53.7237 30.6493 53.2448 31.1337C52.7659 31.6181 52.1179 31.892 51.4412 31.896H48.496V36.3984C48.4928 36.6174 48.4261 36.8306 48.3041 37.0115C48.1821 37.1923 48.0103 37.3328 47.8101 37.4154C47.6099 37.498 47.3901 37.5191 47.1781 37.4761C46.9661 37.4331 46.7713 37.3278 46.618 37.1734L46.6371 37.1889ZM41.9058 29.9509L46.2929 33.9148V30.784C46.2929 30.488 46.4089 30.2042 46.6155 29.9949C46.8221 29.7856 47.1023 29.6681 47.3945 29.6681H51.4412C51.4876 29.6675 51.5335 29.6576 51.5762 29.639C51.6189 29.6204 51.6575 29.5934 51.6898 29.5596C51.724 29.5273 51.7515 29.4884 51.7706 29.4451C51.7896 29.4018 51.7999 29.3551 51.8007 29.3077V12.5922C51.7969 12.5101 51.7674 12.4314 51.7166 12.3675L51.6898 12.3248C51.6233 12.2578 51.5348 12.2178 51.4412 12.2125H30.5382C30.4589 12.2255 30.3862 12.265 30.3317 12.3248H30.2896C30.2563 12.3576 30.2296 12.3967 30.2112 12.4399C30.1928 12.4831 30.1831 12.5296 30.1825 12.5767V29.3077C30.182 29.3552 30.1909 29.4023 30.2086 29.4462C30.2263 29.4902 30.2524 29.5301 30.2856 29.5637C30.3187 29.5972 30.3581 29.6238 30.4015 29.6417C30.4449 29.6596 30.4914 29.6686 30.5382 29.6681H41.1752C41.4448 29.6679 41.705 29.7687 41.9058 29.9509Z" fill="black"/>
</g>
<g clip-path="url(#clip1_465_11312)">
<g clip-path="url(#clip2_465_11312)">
<path d="M65 25L70.1716 30.1716C71.5049 31.5049 72.1716 32.1716 73 32.1716C73.8284 32.1716 74.4951 31.5049 75.8284 30.1716L81 25" stroke="#FCFBFA" stroke-width="2" stroke-linecap="round" stroke-linejoin="round"/>
<path d="M65 25L70.1716 30.1716C71.5049 31.5049 72.1716 32.1716 73 32.1716C73.8284 32.1716 74.4951 31.5049 75.8284 30.1716L81 25" stroke="#1B1B1B" stroke-width="2" stroke-linecap="round" stroke-linejoin="round"/>
</g>
</g>
<defs>
<clipPath id="clip0_465_11312">
<rect width="47" height="36" fill="white" transform="translate(7 10)"/>
</clipPath>
<clipPath id="clip1_465_11312">
<rect width="24" height="24" fill="white" transform="translate(61 16)"/>
</clipPath>
<clipPath id="clip2_465_11312">
<rect width="24" height="24" fill="white" transform="translate(85 40) rotate(180)"/>
</clipPath>
</defs>
</svg>
