<svg width="33" height="32" viewBox="0 0 33 32" fill="none" xmlns="http://www.w3.org/2000/svg">
<path fill-rule="evenodd" clip-rule="evenodd" d="M12.4756 6.17897C7.14461 9.48425 4.18301 13.3314 3.59079 17.7202C2.66883 24.5527 8.99772 27.8969 12.2045 24.8921C15.4113 21.8873 13.489 18.0734 11.167 17.0308C8.84495 15.9882 7.42495 16.3513 7.67265 14.9582C7.92034 13.565 11.2239 9.70234 14.1262 7.90345C14.3188 7.74537 14.392 7.43864 14.2066 7.20593C14.0846 7.05291 13.8454 6.75277 13.489 6.30551C13.1773 5.91439 12.8787 5.92903 12.4756 6.17897Z" fill="#2C30A2"/>
<path fill-rule="evenodd" clip-rule="evenodd" d="M27.6621 6.17897C22.3312 9.48425 19.3695 13.3314 18.7773 17.7202C17.8554 24.5527 24.1843 27.8969 27.391 24.8921C30.5978 21.8873 28.6755 18.0734 26.3535 17.0308C24.0315 15.9882 22.6114 16.3513 22.8592 14.9582C23.1069 13.565 26.4104 9.70234 29.3127 7.90345C29.5053 7.74537 29.5786 7.43864 29.3931 7.20593C29.2712 7.05291 29.032 6.75277 28.6755 6.30551C28.3639 5.91439 28.0653 5.92903 27.6621 6.17897Z" fill="#2C30A2"/>
</svg>
